# xmcd
#
# Track frame offsets:
#  150
#  1884
#  22435
#  40619
#  54723
#  80559
#  103674
#  121103
#  138180
#  157030
#  180447
#  202919
#  221675
#  240577
#  262212
#  282537
#  299990
#  324133
#
# Disc length: 4502 seconds
#
# Revision: 0
# Processed by: cddbd v1.5.1PL2 Copyright (c) Steve Scherf et al.
# Submitted via: Collectorz.com_Music_Collector 6.9
#
DISCID=0c119412
DTITLE=Various Artist - Cum Shots- The Slow Jams Collection
DYEAR=1900
DGENRE=0 R&B
TTITLE0=Vivica Rayy - Vivica Rayy Intro
TTITLE1=Ginuwine - Anxious
TTITLE2=R. Kelly - Down Low [X-rated Remix]
TTITLE3=Changing Faces - Stroke You Up
TTITLE4=Jodeci - Freek'n You
TTITLE5=H'town - Knockin' Da Boots
TTITLE6=Ginuwine - In Those Jeans
TTITLE7=Chico DeBarge - Sexual [C-Shot Remix]
TTITLE8=Joe - Peep Show
TTITLE9=Next - Phone Sex [C-Shot Remix]
TTITLE10=Next - Taste So Good
TTITLE11=Joe - Somebody Gotta Be On Top
TTITLE12=Jodeci - Ride and Slide
TTITLE13=Silk - Meeting in My Bedroom
TTITLE14=D'Angelo - Untitled (How Does It Feel) [C-Shot Remix]
TTITLE15=R. Kelly - Sex Me
TTITLE16=Janet Jackson - Would U Mind
TTITLE17=Ginuwine - Pony
EXTD=
EXTT0=
EXTT1=
EXTT2=
EXTT3=
EXTT4=
EXTT5=
EXTT6=
EXTT7=
EXTT8=
EXTT9=
EXTT10=
EXTT11=
EXTT12=
EXTT13=
EXTT14=
EXTT15=
EXTT16=
EXTT17=
PLAYORDER=
